<svg xmlns="http://www.w3.org/2000/svg" viewBox="0 0 302.47 95.35"><defs><style>.cls-1{fill:#fff;}</style></defs><g id="Layer_1" data-name="Layer 1"><path class="cls-1" d="M26.75,83.79a11.52,11.52,0,0,1-6.82-2,12.25,12.25,0,0,1-4.27-5.4,19.57,19.57,0,0,1-1.46-7.77V27.39a19.09,19.09,0,0,1,1.5-7.72A12.68,12.68,0,0,1,20,14.24a11.33,11.33,0,0,1,6.71-2A11.24,11.24,0,0,1,32,13.43a11.93,11.93,0,0,1,4,3.26,15.06,15.06,0,0,1,2.5,4.81,19.37,19.37,0,0,1,.87,5.89V37h-8.8V27.39a7.43,7.43,0,0,0-.82-3.67,2.92,2.92,0,0,0-2.75-1.48,2.66,2.66,0,0,0-2.53,1.53,7.83,7.83,0,0,0-.78,3.62V68.64a7.26,7.26,0,0,0,.85,3.62,2.68,2.68,0,0,0,2.46,1.53,2.9,2.9,0,0,0,2.77-1.48,7.66,7.66,0,0,0,.8-3.67V59h8.8v9.62a18.76,18.76,0,0,1-1.52,7.72,12.9,12.9,0,0,1-4.34,5.43A11.23,11.23,0,0,1,26.75,83.79Z"/><path class="cls-1" d="M157.54,83V23.58h-8.89V13h27.19V23.58H167V83Z"/><path class="cls-1" d="M180.2,83V13h9.41q8.44,0,12.46,5.12t4,15.08a25.16,25.16,0,0,1-1.9,10.22,15.25,15.25,0,0,1-4.59,6.31L206,83h-9.41l-5.32-29.54h-1.65V83ZM189.61,44a6.26,6.26,0,0,0,4.14-1.26,7,7,0,0,0,2.18-3.59,20.93,20.93,0,0,0,.65-5.53c0-3.33-.5-5.9-1.5-7.69s-2.83-2.7-5.47-2.7Z"/><path class="cls-1" d="M209.35,83,219,13h11.5l9.68,70h-9.15L229.3,68.74h-9.06L218.5,83Zm12.2-25.15H228l-2.71-23.54L225,30.63h-.52l-.26,3.71Z"/><path class="cls-1" d="M245.21,83V13h9.41V83Z"/><path class="cls-1" d="M261.59,83V13h8.8l8.71,36.49.79,3.24h.52V13H289V83h-7.93l-9.59-36.49-.78-3.24h-.53V83Z"/><path class="cls-1" d="M116.85,83V13h8.8l8.71,36.49.79,3.24h.52V13h8.63V83h-7.93l-9.59-36.49L126,43.3h-.53V83Z"/><path class="cls-1" d="M112.29,44.89A34.42,34.42,0,1,0,58.63,77V52.38a1.79,1.79,0,0,1,1.79-1.79h1.2a1.79,1.79,0,0,1,1.79,1.79V68.63a1.79,1.79,0,0,0,1.79,1.79h.1a1.79,1.79,0,0,0,1.79-1.79V28.26a1.8,1.8,0,0,1,1.8-1.79h.59a1.8,1.8,0,0,1,1.8,1.79V51.39a1.79,1.79,0,0,0,1.79,1.79h.2a1.79,1.79,0,0,0,1.79-1.79V17a1.79,1.79,0,0,1,1.79-1.79h.4A1.79,1.79,0,0,1,79,17V51.39a1.79,1.79,0,0,0,1.79,1.79h.5a1.79,1.79,0,0,0,1.79-1.79V21.78A1.8,1.8,0,0,1,84.92,20h.39a1.8,1.8,0,0,1,1.8,1.79V51.39a1.79,1.79,0,1,0,3.58,0V31.7a1.8,1.8,0,0,1,1.79-1.8L95.4,30V78.31A34.42,34.42,0,0,0,112.29,44.89Z"/><path class="cls-1" d="M66.47,70h-2c0-.88-1.39-1.87-3.38-1.87s-3.38,1-3.38,1.87h-2c0-2.17,2.37-3.87,5.38-3.87S66.47,67.86,66.47,70Z"/><path class="cls-1" d="M65.55,58h-2c0-1-1.12-1.87-2.46-1.87S58.63,57,58.63,58h-2c0-2.14,2-3.87,4.46-3.87S65.55,55.87,65.55,58Z"/><path class="cls-1" d="M73.51,36.67h-2a2.52,2.52,0,0,0-4.86,0h-2a4.47,4.47,0,0,1,8.86,0Z"/><path class="cls-1" d="M89.54,35.73h-2a2.38,2.38,0,0,0-4.64,0h-2a4.35,4.35,0,0,1,8.64,0Z"/><path class="cls-1" d="M97.51,38.6h-2c0-1-1.17-1.87-2.54-1.87s-2.55.86-2.55,1.87h-2c0-2.13,2-3.87,4.55-3.87S97.51,36.47,97.51,38.6Z"/><path class="cls-1" d="M74,52.75H72c0-1-1.32-1.86-2.88-1.86s-2.87.85-2.87,1.86h-2c0-2.16,2.14-3.86,4.87-3.86S74,50.62,74,52.75Z"/><path class="cls-1" d="M90.05,52.75h-2c0-1-1.35-1.86-3-1.86s-2.94.85-2.94,1.86h-2c0-2.16,2.17-3.86,4.94-3.86S90.05,50.59,90.05,52.75Z"/><path class="cls-1" d="M98,52.75H96c0-.88-1.28-1.86-3.12-1.86s-3.12,1-3.12,1.86h-2c0-2.16,2.25-3.86,5.12-3.86S98,50.59,98,52.75Z"/><path class="cls-1" d="M82,52.75H80c0-1-1.43-1.86-3.07-1.86s-3.07.87-3.07,1.86h-2c0-2.16,2.23-3.86,5.07-3.86S82,50.59,82,52.75Z"/><path class="cls-1" d="M81.81,32.18h-2c0-1-1.26-1.86-2.74-1.86s-2.74.85-2.74,1.86h-2c0-2.13,2.13-3.86,4.74-3.86S81.81,30.05,81.81,32.18Z"/><rect class="cls-1" x="70.26" y="58.21" width="21.3" height="23.64" rx="4.33"/></g></svg>